<svg width="580" height="400" xmlns="http://www.w3.org/2000/svg">
 <!-- Created with Method Draw - http://github.com/duopixel/Method-Draw/ -->
 <g>
  <title>background</title>
  <rect fill="#fff" id="canvas_background" height="402" width="582" y="-1" x="-1"/>
  <g display="none" overflow="visible" y="0" x="0" height="100%" width="100%" id="canvasGrid">
   <rect fill="url(#gridpattern)" stroke-width="0" y="0" x="0" height="100%" width="100%"/>
  </g>
 </g>
 <g>
  <title>Layer 1</title>
  <path stroke="#000" id="svg_4" d="m292.735825,66.803521c-7.940476,2.939288 -15.186324,6.857855 -22.490057,10.350522c-2.489087,1.189332 -5.316805,3.079805 -7.623552,3.657812c-5.878297,1.467471 -15.076341,-1.099517 -22.56965,-1.367515c-18.728931,-0.664925 -30.854546,0.714179 -46.250705,3.037795c-7.205327,1.08503 -14.665352,2.101974 -20.989369,3.95768c-5.402187,1.586259 -11.595961,5.131078 -17.640679,8.112376c-9.552594,4.712421 -16.058951,9.149601 -23.507399,14.831161c-12.449775,9.490031 -20.287504,21.436953 -29.397273,34.563066c-3.978197,5.729365 -9.707438,14.266192 -9.992526,21.04582c-5.266155,7.989241 -13.267411,12.866807 -15.274599,24.561666c2.806011,6.839022 10.077907,0.757638 14.459858,-1.519622c3.623647,-1.889025 7.522252,-4.146003 10.733463,-5.051402c16.689906,-4.709524 39.948396,2.022299 56.19837,-2.293195c5.759631,-1.528314 10.749382,-4.613914 16.471387,-5.920586c5.434024,-1.24438 9.59022,0.958999 13.464223,2.633625c2.057838,0.892361 4.225659,2.100526 6.095368,3.060973c12.106802,6.262464 24.207816,12.901575 40.462132,15.401925c13.045998,2.003467 24.380026,-1.81949 34.984694,-3.885248c2.691687,-0.525856 6.169173,-0.334635 8.211092,-2.635073c-8.464342,-1.913651 -15.488777,-5.177434 -24.327929,-8.66141c-11.610432,-4.571903 -20.62903,-7.664746 -25.016769,-16.84332c5.196692,-1.36172 11.215362,-0.352019 16.624784,0.596839c5.90724,1.031431 11.769618,2.00057 17.438079,2.933493c23.934306,3.944643 41.959925,10.566369 60.179461,19.156796c8.850729,4.167733 17.00683,9.975325 24.508822,14.849993c15.364322,9.995606 28.479784,22.40754 40.849966,35.929132c5.598998,6.121946 10.600326,13.788141 16.67254,21.095074c2.654061,3.194248 5.322594,6.757899 8.158995,10.702541c2.7105,3.747628 6.846436,8.341261 7.419505,11.619529c0.645426,3.620148 -1.274933,7.589417 -2.241625,11.545649c-1.671451,6.872341 -2.904417,14.244462 -2.344372,21.300781c0.732255,9.126423 2.769833,18.015268 7.0418,24.92962c1.853791,-1.649999 2.610647,-4.554519 3.565762,-7.21422c4.682956,-5.991569 10.912909,-11.975895 11.067753,-21.946873c12.791301,6.617381 37.637308,6.062552 52.554462,5.890164c4.484698,-0.052151 9.05333,0.423002 12.768147,-1.322607c-7.834835,-4.545828 -13.585783,-10.298371 -20.39604,-16.171152c-10.303662,-8.872911 -18.825889,-16.347886 -34.015107,-21.095074c-4.923182,-1.538454 -10.559806,-2.371421 -13.257281,-5.222342c-2.073757,-2.18165 -2.704711,-7.014308 -3.756784,-11.668783c-2.829165,-12.584323 -6.507804,-25.936424 -9.789926,-36.52742c-9.849258,-31.83528 -24.882185,-60.128638 -44.883155,-82.101587c-10.135793,-11.142927 -22.239701,-20.217199 -35.290041,-30.306966c-2.230048,-3.499911 -6.407951,-8.221024 -7.270449,-13.557808c-0.882758,-5.494686 0.7091,-10.317203 4.101205,-14.008334c7.420952,-5.420805 19.080587,-6.020542 24.122435,-14.134366c-6.591739,-4.750086 -14.770993,-6.142227 -22.796851,-6.918697c-17.338226,-1.678972 -33.582411,-0.375197 -47.032163,4.609568z" fill-opacity="null" stroke-opacity="null" stroke-width="0" fill="#000000"/>
 </g>
</svg>